<?xml version="1.0" encoding="UTF-8" standalone="no"?>
<svg
   width="16"
   height="16"
   version="1.1"
   id="svg1"
   sodipodi:docname="icn_CharacterEntity3D.svg"
   inkscape:version="1.4.1 (93de688d07, 2025-03-30)"
   xmlns:inkscape="http://www.inkscape.org/namespaces/inkscape"
   xmlns:sodipodi="http://sodipodi.sourceforge.net/DTD/sodipodi-0.dtd"
   xmlns="http://www.w3.org/2000/svg"
   xmlns:svg="http://www.w3.org/2000/svg">
  <defs
     id="defs1" />
  <sodipodi:namedview
     id="namedview1"
     pagecolor="#ffffff"
     bordercolor="#000000"
     borderopacity="0.25"
     inkscape:showpageshadow="2"
     inkscape:pageopacity="0.0"
     inkscape:pagecheckerboard="0"
     inkscape:deskcolor="#d1d1d1"
     showgrid="true"
     inkscape:zoom="50.517203"
     inkscape:cx="2.0389094"
     inkscape:cy="4.2361807"
     inkscape:window-width="1892"
     inkscape:window-height="1052"
     inkscape:window-x="10"
     inkscape:window-y="10"
     inkscape:window-maximized="1"
     inkscape:current-layer="svg1">
    <inkscape:grid
       id="grid1"
       units="px"
       originx="0"
       originy="0"
       spacingx="1"
       spacingy="1"
       empcolor="#0099e5"
       empopacity="0.30196078"
       color="#0099e5"
       opacity="0.14901961"
       empspacing="4"
       enabled="true"
       visible="true"
       dotted="false" />
  </sodipodi:namedview>
  <path
     fill="#fc7f7f"
     d="m 7.491767,1 a 1,1 0 0 0 -1,1 v 3 a 1,1 0 0 0 1,1 h 1 v 0.99 a 1,1 0 0 0 -0.316,0.062 l -2.051,0.684 -0.684,-2.051 a 1.0000706,1.0000706 0 0 0 -1.898,0.631 l 1,3 a 1,1 0 0 0 1.265,0.633 l 1.684,-0.56 v 0.61 c 0,0.041 0.019,0.076 0.024,0.116 l -4.579,3.052 a 1.0001245,1.0001245 0 1 0 1.11,1.664 l 5.056,-3.37 1.495,2.986 a 1,1 0 0 0 1.21,0.502 l 3,-1 a 1,1 0 1 0 -0.632,-1.897 l -2.178,0.725 -0.975,-1.951 a 0.981,0.981 0 0 0 0.469,-0.827 V 9 h 1.383 l 0.722,1.448 a 1.0006404,1.0006404 0 1 0 1.79,-0.895 l -1,-2 A 1,1 0 0 0 13.491767,7 h -3 V 6 h 1 a 1,1 0 0 0 1,-1 V 2 a 1,1 0 0 0 -1,-1 z m 0,2 h 1 v 2 h -1 z"
     id="path1" />
  <path
     d="m 1.3786797,1.0857864 0.7678737,0.7678738 a 1.5,1.5 0 0 0 0,1.2926796 L 1.3786797,3.9142136 2.0857864,4.6213203 2.8536602,3.8534466 a 1.5,1.5 0 0 0 1.2926796,0 L 4.9142136,4.6213203 5.6213203,3.9142136 4.8534466,3.1463398 a 1.5,1.5 0 0 0 0,-1.2926796 L 5.6213203,1.0857864 4.9142136,0.37867966 4.1463398,1.1465534 a 1.5,1.5 0 0 0 -1.2926796,0 L 2.0857864,0.37867966 Z m 1.7677669,1.0606602 a 0.5,0.5 0 0 1 0.7071068,0 0.5,0.5 0 0 1 0,0.7071068 0.5,0.5 0 0 1 -0.7071068,0 0.5,0.5 0 0 1 0,-0.7071068 z"
     style="fill:#fc7f7f"
     id="path26" />
</svg>
